<svg width="110" height="110" viewBox="0 0 110 110" fill="none" xmlns="http://www.w3.org/2000/svg">
<circle cx="55" cy="55" r="53.5" stroke="#4AA850" stroke-width="3"/>
<path d="M39.1746 28.597C38.3349 28.8929 38.0059 29.1043 36.1791 30.5415C34.0232 32.2325 33.331 32.8454 32.5368 33.7437C30.0745 36.5443 28.7243 39.7781 28.4633 43.4981C28.2364 46.7742 28.8377 49.9447 30.3922 53.7704C30.9369 55.102 32.8091 58.4838 33.887 60.0901C38.1761 66.4839 45.0408 73.406 50.9184 77.2951C59.2696 82.8011 67.53 83.9742 74.5536 80.6452C76.0854 79.916 77.186 79.1868 78.9675 77.7072C81.7701 75.3822 82.2467 74.8221 82.4509 73.6491C82.78 71.7257 81.5205 70.0876 77.0158 66.5156C73.8161 63.9686 71.7283 62.9647 69.7313 62.9647C67.8023 62.9752 66.645 63.6199 63.4225 66.4839C62.5374 67.2765 61.6411 67.9845 61.346 68.1114C58.8157 69.2739 55.4685 67.8577 51.1454 63.8207C47.9456 60.8299 45.1089 57.4164 43.7246 54.9012C42.4197 52.5128 42.1474 50.695 42.8963 49.2049C43.2254 48.5497 43.736 48.0424 44.9047 47.2392C46.0507 46.4466 48.1952 44.6817 48.6945 44.1216C48.9101 43.868 49.2618 43.3396 49.4547 42.9486C49.7497 42.3462 49.8291 42.0608 49.8745 41.2577C49.9426 39.9789 49.6589 38.9221 48.7739 37.2206C48.0137 35.7516 45.9486 32.6657 44.8026 31.2919C42.8169 28.9035 40.922 27.9946 39.1746 28.597Z" fill="#4AA850"/>
</svg>
