<svg width="30" height="31" viewBox="0 0 30 31" fill="none" xmlns="http://www.w3.org/2000/svg">
<path d="M5.96724 0.899836C5.50148 1.06398 5.31895 1.18122 4.30562 1.97847C3.10976 2.91642 2.72582 3.25642 2.28524 3.7547C0.91944 5.30818 0.170453 7.102 0.0256905 9.16547C-0.10019 10.9827 0.233393 12.7414 1.09567 14.8635C1.39778 15.6021 2.4363 17.478 3.03423 18.3691C5.41336 21.9157 9.22124 25.7554 12.4815 27.9126C17.1139 30.9668 21.696 31.6175 25.592 29.7709C26.4416 29.3665 27.0522 28.962 28.0403 28.1413C29.5949 26.8516 29.8593 26.5409 29.9726 25.8902C30.1551 24.8233 29.4565 23.9147 26.9578 21.9332C25.1828 20.5205 24.0247 19.9636 22.917 19.9636C21.847 19.9694 21.205 20.327 19.4175 21.9157C18.9266 22.3553 18.4294 22.7481 18.2657 22.8184C16.8622 23.4633 15.0054 22.6777 12.6074 20.4384C10.8325 18.7794 9.259 16.8859 8.49113 15.4907C7.76732 14.1659 7.61627 13.1576 8.03167 12.331C8.2142 11.9676 8.49743 11.6862 9.14571 11.2407C9.78141 10.801 10.971 9.82204 11.2479 9.51134C11.3675 9.37065 11.5626 9.07754 11.6696 8.86064C11.8333 8.5265 11.8773 8.36822 11.9025 7.9227C11.9403 7.21338 11.7829 6.62716 11.292 5.68335C10.8703 4.86851 9.72476 3.15676 9.08906 2.39469C7.98761 1.06984 6.93651 0.565693 5.96724 0.899836Z" fill="white"/>
</svg>
